<?xml version="1.0" encoding="UTF-8"?>
<svg viewBox="0 0 610 610" xmlns="http://www.w3.org/2000/svg" xmlns:xlink="http://www.w3.org/1999/xlink">
 <g transform="translate(5 -397.36)">
  <path d="m1.538 402.36h596.92a1.538 1.538 0 0 1 1.538 1.538v596.92a1.538 1.538 0 0 1 -1.538 1.538h-596.92a1.538 1.538 0 0 1 -1.538 -1.538v-596.92a1.538 1.538 0 0 1 1.538 -1.538" fill="none" stroke="#4a0" stroke-linejoin="round" stroke-width="10"/>
  <g fill="#4a0">
   <path transform="translate(-5 397.36)" d="m269.62 204.88c-78.8 0.87336-158.14 40.09-171.06 113.69-28.695 11.988-48.562 41.655-48.562 76.344 2.1747 20.332 15.466 11.105 24.406 13.469 0.06401-30.564 23.434-55.312 52.219-55.312 28.824 0 52.188 24.815 52.188 55.438 0 5.8605-0.88264 11.51-2.4688 16.812 0.4576-1.0582 0.91608-2.1264 1.3125-3.2188 72.657 0.44729 123.76 0.46073 251.84 0.6875-1.0252-4.3364-1.5938-8.857-1.5938-13.531 0-30.622 23.395-55.438 52.219-55.438s52.188 24.815 52.188 55.438c0 3.1679-0.23844 6.2585-0.71875 9.2812 1.1087-4.0116 1.793-8.2022 2.0312-12.531 0.0761 2.745 0.0814 5.5771-0.0625 8.5l3.6875 0.6875c3.3812-9.3591 14.009-32.437 12.875-50.812s-12.892-33.957-28.281-43.5c-24.355-13.13-50.968-17.302-77.719-21.375-8.3538-1.8428-10.871-2.3032-13.219-4.6562-22.617-61.658-91.752-90.739-161.28-89.969zm-28.42 52.495c23.628-6e-3 37.581 0 52.75 0 18.967 4.462 29.013 14.792 33.188 24.375l43.312 1.0312c4.5692 0 8.25 2.1957 8.25 4.9062v46.25c0 2.7105-3.6808 4.9062-8.25 4.9062l-43.312 1c-4.1744 9.5832-14.22 19.944-33.188 24.406-15.169 0-29.122 6e-3 -52.75 0v-14.625h-44.531c-4.5692 0-8.25-2.1957-8.25-4.9062s3.6808-4.875 8.25-4.875h44.531v-58.062h-44.531c-4.5692 0-8.25-2.1645-8.25-4.875s3.6808-4.9062 8.25-4.9062h44.531v-14.625z" fill-rule="evenodd"/>
   <path transform="matrix(2.2411 0 0 2.381 367.66 878.69)" d="m-86.497-30.581c0 12.861-10.426 23.288-23.288 23.288s-23.288-10.426-23.288-23.288 10.426-23.288 23.288-23.288 23.288 10.426 23.288 23.288z" stroke="#fff" stroke-width="2.1"/>
   <path transform="matrix(2.2411 0 0 2.381 721.16 879.43)" d="m-86.497-30.581c0 12.861-10.426 23.288-23.288 23.288s-23.288-10.426-23.288-23.288 10.426-23.288 23.288-23.288 23.288 10.426 23.288 23.288z" stroke="#fff" stroke-width="2.1"/>
  </g>
 </g>
</svg>
