<?xml version="1.0" encoding="UTF-8"?>
<svg viewBox="0 0 200 175" xmlns="http://www.w3.org/2000/svg" xmlns:xlink="http://www.w3.org/1999/xlink">
 <defs>
  <linearGradient id="a">
   <stop stop-color="#eee" offset="0"/>
   <stop stop-color="#eee" stop-opacity="0" offset="1"/>
  </linearGradient>
  <linearGradient id="e" x1="118.34" x2="255.84" y1="1014" y2="858.35" gradientUnits="userSpaceOnUse">
   <stop stop-color="#666" offset="0"/>
   <stop stop-color="#666" stop-opacity="0" offset="1"/>
  </linearGradient>
  <linearGradient id="d" x1="-3285.4" x2="-3355.4" y1="2266.8" y2="2297.4" gradientUnits="userSpaceOnUse" xlink:href="#a"/>
  <linearGradient id="c" x1="-3349.9" x2="-3338" gradientUnits="userSpaceOnUse" xlink:href="#a"/>
  <linearGradient id="b" x1="-3329" x2="-3332" y1="2281.3" y2="2292.4" gradientUnits="userSpaceOnUse" xlink:href="#a"/>
 </defs>
 <g transform="translate(-18.309 -892.7)">
  <path d="m42.084 892.73h152.5a23.75 23.75 0 0 1 23.75 23.75v127.5a23.75 23.75 0 0 1 -23.75 23.75h-152.5a23.75 23.75 0 0 1 -23.75 -23.75v-127.5a23.75 23.75 0 0 1 23.75 -23.75" fill="#fff" fill-rule="evenodd"/>
  <path d="m42.084 892.73h152.5a23.75 23.75 0 0 1 23.75 23.75v127.5a23.75 23.75 0 0 1 -23.75 23.75h-152.5a23.75 23.75 0 0 1 -23.75 -23.75v-127.5a23.75 23.75 0 0 1 23.75 -23.75" fill="url(#e)" fill-rule="evenodd"/>
  <path transform="matrix(5 0 0 5 16800 -10508)" d="m-3351.6 2281.1c-2.0891 0-3.75 1.6609-3.75 3.75v25.5c0 2.0891 1.6609 3.75 3.75 3.75h30.5c2.0891 0 3.75-1.6609 3.75-3.75v-25.5c0-2.0891-1.6609-3.75-3.75-3.75h-30.5z" fill="#015a01" fill-rule="evenodd"/>
  <g transform="matrix(1.8833 0 0 1.8833 -305.36 834.69)" fill="#eee" font-family="xscale" font-size="197.52" font-weight="bold">
   <path d="m180.47 111.1v-11.437c-1e-5 -0.25739 0.0551-0.55189 0.16523-0.8835 0.73737-2.2829 3.4446-3.4244 8.1218-3.4244h17.68v4.254h-15.414c-0.11129 0.03599-0.29564 0.07252-0.55303 0.10959-0.9577 0.18436-1.4365 0.57103-1.4365 1.16v2.2104h17.404v4.3096h-17.404v2.2104c-1e-5 0.81044 0.7368 1.2522 2.2104 1.3252h15.193v4.3096h-16.464c-6.3351 0-9.5027-1.3814-9.5027-4.1444z"/>
   <path d="m211.23 110.82v-10.941c0-1.731 0.67218-2.9186 2.0165-3.5627s3.7847-0.9661 7.3209-0.96612h16.685v4.254h-15.47c-1.105 0.07308-1.7681 0.36758-1.9896 0.8835v8.7288c-1e-5 0.73738 0.25795 1.2348 0.7739 1.4922 0.29449 0.14725 0.88349 0.22087 1.767 0.22087h14.918v4.3096h-17.957c-0.9577 0-1.9519-0.11072-2.9827-0.33215-3.389-0.66207-5.0835-2.0244-5.0835-4.087z"/>
   <path d="m241.66 99.606c0-0.33158 0.0736-0.68172 0.22087-1.0504 0.9206-2.1357 3.8487-3.2035 8.7844-3.2035h10.111c5.9293 2e-5 8.894 1.418 8.894 4.254v11.325c-3e-5 2.8731-2.9832 4.3096-8.9497 4.3096h-10.056c-2.7258 0-4.7516-0.24869-6.0774-0.74608s-2.2096-1.3351-2.6513-2.5131c-0.14726-0.36868-0.22088-0.70028-0.22088-0.99478zm8.5635 1.3809 0.0556 8.5635c-1e-5 0.9206 0.93913 1.3809 2.8174 1.3809h5.2487c1.8783 0 2.8174-0.40521 2.8174-1.2157v-8.7288c-3e-5 -0.92058-0.93917-1.3809-2.8174-1.3809h-5.2487c-1.9154 1.4e-5 -2.8731 0.46031-2.8731 1.3809z"/>
  </g>
  <path transform="matrix(5 0 0 5 16800 -10508)" d="m-3351.6 2281.8c-1.721 0-3.0625 1.3415-3.0625 3.0625v2.0625c0 1.9022 2.1159 4.7977 5.5313 7.6563s8.0199 5.7212 12.656 8 9.3233 3.9564 12.812 4.4687c1.7446 0.2561 3.1881 0.2065 4.125-0.125s1.387-0.8118 1.5-1.7813v-20.281c0-1.721-1.3415-3.0625-3.0625-3.0625h-30.5z" fill="url(#d)" fill-rule="evenodd"/>
  <g transform="matrix(5.8112 0 0 5.8112 19510 -12364)">
   <path d="m-3338 2300c-5.6023 1.9838-7.0225-2.1359-6.9931-4.064 0.091-2.7868-2.0565-5.0889-4.8293-6.8612 4.4106 0.3933 7.6495-0.7405 10.45 1.4777-0.3591 1.5196-0.7113 3.0403-0.2111 4.6974-3.1655-3.3337-4.829-4.2767-5.7001-4.6974 2.1323 1.2371 5.9242 5.414 7.2834 9.4475z" fill="#54fc00"/>
   <path d="m-3337.1895,2299.2234c-1.7662-3.4591-1.8041-6.6039-.475-9.5002 3.1892-5.4334 8.6622-5.5737 12.3238-5.3834-1.9825,2.9051-2.8235,4.1677-2.7951,5.859 .039,2.302 1.0951,5.1817.024,7.2829-2.0125,3.1685-3.9036,2.9547-5.5815,3.012-.7536.01-1.1307-.161-1.0445-.8791-.01-5.0499-.4621-9.6577 4.6732-11.3692-4.1259,1.3327-5.0781,2.6978-6.3859,9.9562-.066,1.3331-.3975,1.205-.7392,1.0218h-.0002z" fill="#359e00"/>
   <path d="m-3338 2300c-5.6023 1.9838-7.0225-2.1359-6.9931-4.064 0.091-2.7868-2.0565-5.0889-4.8293-6.8612 4.4106 0.3933 7.6495-0.7405 10.45 1.4777-0.3591 1.5196-0.7113 3.0403-0.2111 4.6974-3.1655-3.3337-4.829-4.2767-5.7001-4.6974 2.1323 1.2371 5.9242 5.414 7.2834 9.4475z" fill="url(#c)"/>
   <path d="m-3337.1895,2299.2234c-1.7662-3.4591-1.8041-6.6039-.475-9.5002 3.1892-5.4334 8.6622-5.5737 12.3238-5.3834-1.9825,2.9051-2.8235,4.1677-2.7951,5.859 .039,2.302 1.0951,5.1817.024,7.2829-2.0125,3.1685-3.9036,2.9547-5.5815,3.012-.7536.01-1.1307-.161-1.0445-.8791-.01-5.0499-.4621-9.6577 4.6732-11.3692-4.1259,1.3327-5.0781,2.6978-6.3859,9.9562-.066,1.3331-.3975,1.205-.7392,1.0218h-.0002z" fill="url(#b)"/>
  </g>
 </g>
</svg>
