<?xml version="1.0" encoding="UTF-8"?>
<svg viewBox="0 0 610 610" xmlns="http://www.w3.org/2000/svg" xmlns:xlink="http://www.w3.org/1999/xlink">
 <g transform="translate(5 -397.36)">
  <path d="m1.538 402.36h596.92a1.538 1.538 0 0 1 1.538 1.538v596.92a1.538 1.538 0 0 1 -1.538 1.538h-596.92a1.538 1.538 0 0 1 -1.538 -1.538v-596.92a1.538 1.538 0 0 1 1.538 -1.538" fill="none" stroke="#4a0" stroke-linejoin="round" stroke-width="10"/>
  <g transform="matrix(6.4265 0 0 6.4265 -390.94 -1687.5)" fill="#4a0">
   <path d="m100.12 354.22c1.2224 0 0.66196 0.98412 0.66196 2.2065l1.5446 47.661c0 1.2224-0.98411 2.2065-2.2065 2.2065s-2.2065-0.98412-2.2065-2.2065l1.3791-47.661c0-1.2224-0.39497-2.2065 0.82744-2.2065z"/>
   <path transform="matrix(.66117 -.23796 .23796 .66117 15.888 227.84)" d="m70.827 234.07c-2.7445 2.2871-16.421-21.022-19.774-22.256s-28.874 7.6585-29.483 4.1381 26.417-3.7102 29.161-5.9973 7.8046-28.835 11.158-27.602-9.9952 24.733-9.3868 28.253 21.069 21.176 18.325 23.464z"/>
   <path transform="matrix(.95741 0 0 .95741 13.67 145.58)" d="m91.964 218.83c0 0.98622-0.79949 1.7857-1.7857 1.7857s-1.7857-0.79949-1.7857-1.7857 0.79949-1.7857 1.7857-1.7857 1.7857 0.79949 1.7857 1.7857z"/>
   <g transform="matrix(.41496 0 0 .41496 87.075 235.09)">
    <path d="m95.802 342.12c1.7396 0 0.94204 1.4005 0.94204 3.1401l2.1981 67.827c0 1.7396-1.4005 3.1401-3.1401 3.1401s-3.1401-1.4005-3.1401-3.1401l1.9626-67.827c0-1.7396-0.56208-3.1401 1.1776-3.1401z"/>
    <path transform="matrix(.94091 -.33865 .33865 .94091 -24.066 162.27)" d="m70.827 234.07c-2.7445 2.2871-16.421-21.022-19.774-22.256s-28.874 7.6585-29.483 4.1381 26.417-3.7102 29.161-5.9973 7.8046-28.835 11.158-27.602-9.9952 24.733-9.3868 28.253 21.069 21.176 18.325 23.464z"/>
    <path transform="matrix(1.3625 0 0 1.3625 -27.222 45.198)" d="m91.964 218.83c0 0.98622-0.79949 1.7857-1.7857 1.7857s-1.7857-0.79949-1.7857-1.7857 0.79949-1.7857 1.7857-1.7857 1.7857 0.79949 1.7857 1.7857z"/>
   </g>
   <g transform="matrix(.2711 0 0 .2711 56.13 295.48)">
    <path d="m95.802 342.12c1.7396 0 0.94204 1.4005 0.94204 3.1401l2.1981 67.827c0 1.7396-1.4005 3.1401-3.1401 3.1401s-3.1401-1.4005-3.1401-3.1401l1.9626-67.827c0-1.7396-0.56208-3.1401 1.1776-3.1401z"/>
    <path transform="matrix(.94091 -.33865 .33865 .94091 -24.066 162.27)" d="m70.827 234.07c-2.7445 2.2871-16.421-21.022-19.774-22.256s-28.874 7.6585-29.483 4.1381 26.417-3.7102 29.161-5.9973 7.8046-28.835 11.158-27.602-9.9952 24.733-9.3868 28.253 21.069 21.176 18.325 23.464z"/>
    <path transform="matrix(1.3625 0 0 1.3625 -27.222 45.198)" d="m91.964 218.83c0 0.98622-0.79949 1.7857-1.7857 1.7857s-1.7857-0.79949-1.7857-1.7857 0.79949-1.7857 1.7857-1.7857 1.7857 0.79949 1.7857 1.7857z"/>
   </g>
  </g>
 </g>
</svg>
