<?xml version="1.0" encoding="UTF-8"?>
<svg viewBox="0 0 610 610" xmlns="http://www.w3.org/2000/svg" xmlns:xlink="http://www.w3.org/1999/xlink">
 <g transform="translate(5 -397.36)">
  <path d="m1.538 402.36h596.92a1.538 1.538 0 0 1 1.538 1.538v596.92a1.538 1.538 0 0 1 -1.538 1.538h-596.92a1.538 1.538 0 0 1 -1.538 -1.538v-596.92a1.538 1.538 0 0 1 1.538 -1.538" fill="none" stroke="#4a0" stroke-linejoin="round" stroke-width="10"/>
  <path transform="matrix(3.7977 0 0 3.7977 -956.06 -603.53)" d="m383.57 382.22c7.1609-9.8759-68.297-73.471-77.638-65.624-9.3909 7.8885 37.538 94.174 48.962 89.713 11.363-4.4367-17.734-98.732-29.834-97.181-12.165 1.5591-19.335 99.518-7.3129 101.94 11.958 2.4111 38.46-92.646 27.442-97.883-11.077-5.2653-70.07 73.267-61.266 81.806 8.7563 8.4935 82.442-57.146 76.005-67.508-6.4718-10.418-98.557 23.753-95.768 35.696 2.7744 11.879 100.25-3.5025 100.44-15.7 0.18798-12.263-95.754-33.302-99.864-21.746-4.0884 11.493 86.23 51.253 92.981 41.093 6.7881-10.215-62.549-79.783-72.254-72.285-9.6532 7.4584 44.832 89.736 56.004 84.839 11.233-4.9233-9.4853-100.93-21.704-99.873-12.153 1.0555-10.8 99.729 1.2464 101.65 12.112 1.9313 46.59-90.04 35.737-95.753-10.795-5.6825-63.003 78.058-53.907 86.187 9.1447 8.1727 87.873-50.558 81.832-61.231-6.0087-10.616-95.203 31.604-91.946 43.36 3.2745 11.819 101.26 4.9758 101.95-7.2694 0.68477-12.18-97.176-24.883-100.79-13.233-3.6353 11.713 82.493 58.93 89.692 49z" fill="#4a0"/>
  <path transform="matrix(9.6908 0 0 9.6908 -4682.1 -3034.2)" d="m523.93 386.15c0 5.7201-4.637 10.357-10.357 10.357s-10.357-4.637-10.357-10.357 4.637-10.357 10.357-10.357 10.357 4.637 10.357 10.357z" fill="#250"/>
 </g>
</svg>
