<?xml version="1.0" encoding="UTF-8"?>
<svg viewBox="0 0 610 610" xmlns="http://www.w3.org/2000/svg" xmlns:xlink="http://www.w3.org/1999/xlink">
 <g transform="translate(5 -397.36)">
  <path d="m1.538 402.36h596.92a1.538 1.538 0 0 1 1.538 1.538v596.92a1.538 1.538 0 0 1 -1.538 1.538h-596.92a1.538 1.538 0 0 1 -1.538 -1.538v-596.92a1.538 1.538 0 0 1 1.538 -1.538" fill="none" stroke="#4a0" stroke-linejoin="round" stroke-width="10"/>
  <path d="m391.75 455.4-22.168 0.12248 2.1433 68.709-72.2-48.317 1.286 38.274 231.54 153.58c11.73 0.16794 23.695-2.4043 16.595-25.046l-154.56-103.37-2.6332-83.957zm-99.022 20.086-248.44 167.73c-6.8887 20.736 6.6898 25.356 16.595 25.046l232.46-153.65-0.61238-39.131zm-166.63 160.5-27.925 21.372v274.77h27.006l0.91857-296.15zm340.97 0 0.91856 296.15h27.006v-274.77l-27.924-21.372zm-384.27 301.29c-3.7781 4.6541-5.5741 9.3082 0 13.962h427.56c3.1488-3.6045 6.0734-7.2837 0-13.962h-427.56z" fill="#4a0"/>
 </g>
</svg>
