<?xml version="1.0" encoding="UTF-8"?>
<svg viewBox="0 0 610 610" xmlns="http://www.w3.org/2000/svg" xmlns:xlink="http://www.w3.org/1999/xlink">
 <g transform="translate(5 -397.36)">
  <path d="m1.538 402.36h596.92a1.538 1.538 0 0 1 1.538 1.538v596.92a1.538 1.538 0 0 1 -1.538 1.538h-596.92a1.538 1.538 0 0 1 -1.538 -1.538v-596.92a1.538 1.538 0 0 1 1.538 -1.538" fill="none" stroke="#4a0" stroke-linejoin="round" stroke-width="10"/>
  <g transform="matrix(21.642 0 0 21.388 -4443.8 -13330)" fill="#4a0" stroke="#4a0" stroke-linecap="round">
   <path d="m225.09 656.05h5"/>
   <path d="m218.48 650.16v-5"/>
   <path d="m223.59 651.66 1.9284-1.6605"/>
   <g transform="matrix(0 1 -1 0 875.24 437.56)">
    <path d="m225.09 656.05h5"/>
    <path d="m218.48 650.16v-5"/>
    <path d="m223.59 651.66 1.9284-1.6605"/>
   </g>
   <g transform="matrix(0 -1 1 0 -437.57 875.23)">
    <path d="m225.09 656.05h5"/>
    <path d="m218.48 650.16v-5"/>
    <path d="m223.59 651.66 1.9284-1.6605"/>
   </g>
   <g transform="matrix(-1 0 0 -1 437.85 1312.8)">
    <path d="m225.09 656.05h5"/>
    <path d="m218.48 650.16v-5"/>
    <path d="m223.59 651.66 1.9284-1.6605"/>
   </g>
  </g>
  <g transform="matrix(2.989 0 0 2.954 -451.03 -792.61)" fill="#4a0">
   <path d="m228.06 498.96c0.6494 11.831 10.444 21.219 22.438 21.219s21.819-9.3879 22.469-21.219h-44.906z"/>
   <path transform="translate(5.802 124.9)" d="m232.34 357.9c1.3991 0 2.5254 1.1263 2.5254 2.5254v14.142c0 1.3991-1.1263 2.5254-2.5254 2.5254s-2.5254-1.1263-2.5254-2.5254v-14.142c0-1.3991 1.1263-2.5254 2.5254-2.5254z"/>
   <path d="m262.14 482.8c1.3991 0 2.5254 1.1263 2.5254 2.5254v14.142c0 1.3991-1.1263 2.5254-2.5254 2.5254s-2.5254-1.1263-2.5254-2.5254v-14.142c0-1.3991 1.1263-2.5254 2.5254-2.5254z"/>
   <path transform="translate(5.802 124.9)" d="m237.89 388.45h14.773c1.3991 0 2.5254 1.1263 2.5254 2.5254v14.773c0 1.3991-1.1263 2.5254-2.5254 2.5254h-14.773c-1.3991 0-2.5254-1.1263-2.5254-2.5254v-14.773c0-1.3991 1.1263-2.5254 2.5254-2.5254z"/>
  </g>
 </g>
</svg>
