<?xml version="1.0" encoding="UTF-8"?>
<svg viewBox="0 0 610 610" xmlns="http://www.w3.org/2000/svg" xmlns:xlink="http://www.w3.org/1999/xlink">
 <g transform="translate(5 -397.36)">
  <path d="m1.538 402.36h596.92a1.538 1.538 0 0 1 1.538 1.538v596.92a1.538 1.538 0 0 1 -1.538 1.538h-596.92a1.538 1.538 0 0 1 -1.538 -1.538v-596.92a1.538 1.538 0 0 1 1.538 -1.538" fill="none" stroke="#4a0" stroke-linejoin="round" stroke-width="10"/>
  <g transform="matrix(6.7369 0 0 6.7369 -4166.7 -1830.7)">
   <path transform="translate(454.98 298.49)" d="m230.04 68.045c1.8466 5.9163 15.955 13.443 13.971 19.315s-17.766 3.301-22.822 6.8855-7.8546 19.328-14.052 19.256-8.6293-15.876-13.601-19.577-20.809-1.4976-22.656-7.4139 12.432-13.113 14.416-18.985-5.006-20.253 0.0501-23.838 16.313 7.7718 22.51 7.8438 17.715-11.02 22.686-7.3186-2.3504 17.916-0.5038 23.832z" fill="#4a0"/>
   <path d="m657.76 402.88s4.0818 2.0889 9.7938-1.7822" fill="none" stroke="#fff" stroke-linecap="round"/>
   <path d="m688.19 387.62s3.816-2.5421 3.2269-9.4171" fill="none" stroke="#fff" stroke-linecap="round"/>
   <path d="m648.63 346.33s-4.493 0.91483-6.5409 7.5041" fill="none" stroke="#fff" stroke-linecap="round"/>
   <path d="m684.54 353.09s-0.64926-4.539-7.1068-6.9705" fill="none" stroke="#fff" stroke-linecap="round"/>
   <path d="m631.36 379.28s-0.31317 4.5745 5.4941 8.3012" fill="none" stroke="#fff" stroke-linecap="round"/>
  </g>
 </g>
</svg>
